<svg xmlns="http://www.w3.org/2000/svg" width="44" height="46" viewBox="0 0 44 46" fill="none">
    <path opacity="0.5" d="M30 28H26V32H30V28Z" fill="#0074BF"/>
    <path opacity="0.7" d="M26 28H22V32H26V28Z" fill="#0074BF"/>
    <path opacity="0.7" d="M22 28H18V32H22V28Z" fill="#0074BF"/>
    <path opacity="0.5" d="M18 28H14V32H18V28Z" fill="#0074BF"/>
    <path opacity="0.7" d="M34 24H30V28H34V24Z" fill="#0082BF"/>
    <path opacity="0.8" d="M30 24H26V28H30V24Z" fill="#0082BF"/>
    <path d="M26 24H22V28H26V24Z" fill="#0082BF"/>
    <path d="M22 24H18V28H22V24Z" fill="#0082BF"/>
    <path opacity="0.8" d="M18 24H14V28H18V24Z" fill="#0082BF"/>
    <path opacity="0.7" d="M14 24H10V28H14V24Z" fill="#0082BF"/>
    <path opacity="0.5" d="M38 20H34V24H38V20Z" fill="#008FBF"/>
    <path opacity="0.8" d="M34 20H30V24H34V20Z" fill="#008FBF"/>
    <path d="M30 20H26V24H30V20Z" fill="#008FBF"/>
    <path d="M26 20H22V24H26V20Z" fill="#008FBF"/>
    <path d="M22 20H18V24H22V20Z" fill="#008FBF"/>
    <path d="M18 20H14V24H18V20Z" fill="#008FBF"/>
    <path opacity="0.8" d="M14 20H10V24H14V20Z" fill="#008FBF"/>
    <path opacity="0.5" d="M10 20H6V24H10V20Z" fill="#008FBF"/>
    <path opacity="0.7" d="M38 16H34V20H38V16Z" fill="#009DBF"/>
    <path d="M34 16H30V20H34V16Z" fill="#009DBF"/>
    <path d="M30 16H26V20H30V16Z" fill="#009DBF"/>
    <path d="M26 16H22V20H26V16Z" fill="#009DBF"/>
    <path d="M22 16H18V20H22V16Z" fill="#009DBF"/>
    <path d="M18 16H14V20H18V16Z" fill="#009DBF"/>
    <path d="M14 16H10V20H14V16Z" fill="#009DBF"/>
    <path opacity="0.7" d="M10 16H6V20H10V16Z" fill="#009DBF"/>
    <path opacity="0.7" d="M38 12H34V16H38V12Z" fill="#00ABBF"/>
    <path d="M34 12H30V16H34V12Z" fill="#00ABBF"/>
    <path d="M30 12H26V16H30V12Z" fill="#00ABBF"/>
    <path d="M26 12H22V16H26V12Z" fill="#00ABBF"/>
    <path d="M22 12H18V16H22V12Z" fill="#00ABBF"/>
    <path d="M18 12H14V16H18V12Z" fill="#00ABBF"/>
    <path d="M14 12H10V16H14V12Z" fill="#00ABBF"/>
    <path opacity="0.7" d="M10 12H6V16H10V12Z" fill="#00ABBF"/>
    <path opacity="0.5" d="M38 8H34V12H38V8Z" fill="#00B9BF"/>
    <path opacity="0.8" d="M34 8H30V12H34V8Z" fill="#00B9BF"/>
    <path d="M30 8H26V12H30V8Z" fill="#00B9BF"/>
    <path d="M26 8H22V12H26V8Z" fill="#00B9BF"/>
    <path d="M22 8H18V12H22V8Z" fill="#00B9BF"/>
    <path d="M18 8H14V12H18V8Z" fill="#00B9BF"/>
    <path opacity="0.8" d="M14 8H10V12H14V8Z" fill="#00B9BF"/>
    <path opacity="0.5" d="M10 8H6V12H10V8Z" fill="#00B9BF"/>
    <path opacity="0.7" d="M34 4H30V8H34V4Z" fill="#00C6BF"/>
    <path opacity="0.8" d="M30 4H26V8H30V4Z" fill="#00C6BF"/>
    <path d="M26 4H22V8H26V4Z" fill="#00C6BF"/>
    <path d="M22 4H18V8H22V4Z" fill="#00C6BF"/>
    <path opacity="0.8" d="M18 4H14V8H18V4Z" fill="#00C6BF"/>
    <path opacity="0.7" d="M14 4H10V8H14V4Z" fill="#00C6BF"/>
    <path opacity="0.5" d="M30 0H26V4H30V0Z" fill="#00D4BF"/>
    <path opacity="0.7" d="M26 0H22V4H26V0Z" fill="#00D4BF"/>
    <path opacity="0.7" d="M22 0H18V4H22V0Z" fill="#00D4BF"/>
    <path opacity="0.5" d="M18 0H14V4H18V0Z" fill="#00D4BF"/>
    <path d="M16.5141 14.9697L17.6379 12.4572C18.0459 11.8129 17.9958 11.0255 17.5449 10.5745C17.4876 10.5173 17.416 10.46 17.3444 10.4171C17.0366 10.2238 16.6572 10.1808 16.3065 10.2954C15.9199 10.4171 15.5835 10.6748 15.3687 11.0184C15.3687 11.0184 13.8297 14.6046 13.2642 16.2153C12.6987 17.8259 12.9206 20.7822 15.1254 22.987C17.4661 25.3277 20.8448 25.8575 23.0066 24.2397C23.0997 24.1967 23.1784 24.1395 23.2572 24.0751L29.9072 18.5202C30.2293 18.2554 30.7089 17.7042 30.2794 17.0743C29.8642 16.4586 29.0697 16.881 28.7404 17.0886L24.9107 19.8731C24.8391 19.9304 24.7318 19.9232 24.6673 19.8517C24.6673 19.8517 24.6673 19.8445 24.6602 19.8445C24.56 19.7228 24.5456 19.4079 24.696 19.2862L30.5657 14.304C31.074 13.8459 31.1456 13.1802 30.7304 12.7292C30.3295 12.2854 29.6924 12.2997 29.1842 12.7578L23.9157 16.881C23.8155 16.9597 23.6652 16.9454 23.5864 16.8452L23.5793 16.838C23.4719 16.7235 23.4361 16.5231 23.5506 16.4014L29.535 10.596C30.0074 10.1522 30.036 9.4149 29.5922 8.94245C29.3775 8.72054 29.084 8.59169 28.7762 8.59169C28.4612 8.59169 28.1606 8.70623 27.9387 8.92813L21.8255 14.6691C21.6823 14.8122 21.396 14.6691 21.3602 14.4973C21.3459 14.4328 21.3674 14.3684 21.4103 14.3255L26.0918 8.99972C26.5571 8.56306 26.5858 7.83292 26.1491 7.36763C25.7124 6.90234 24.9823 6.87371 24.517 7.31036C24.4955 7.32468 24.4812 7.34615 24.4597 7.36763L17.3659 15.2203C17.1082 15.478 16.736 15.4851 16.557 15.342C16.4425 15.2489 16.4282 15.0843 16.5141 14.9697Z"
          fill="white"/>
    <path d="M4.99195 43.6627H3.32946V40.8306C3.32946 40.1764 3.2488 39.6073 2.55423 39.6073C1.85966 39.6073 1.64905 40.2167 1.64905 41.0144V43.6627H0V36.112H1.64905V37.9045C1.64905 38.4512 1.64008 39.0427 1.64008 39.0427C1.89999 38.5632 2.38395 38.1689 3.13677 38.1689C4.61106 38.1689 4.99195 39.1637 4.99195 40.4766V43.6627Z"
          fill="#555555"/>
    <path d="M12.081 42.762C11.7181 43.1563 10.9652 43.7882 9.51337 43.7882C7.42069 43.7882 5.77612 42.3228 5.77612 39.8941C5.77612 37.4564 7.43861 36 9.50889 36C10.9742 36 11.7674 36.6453 11.9556 36.8514L11.4402 38.3167C11.3058 38.1285 10.544 37.5281 9.60299 37.5281C8.39757 37.5281 7.4655 38.3795 7.4655 39.8582C7.4655 41.337 8.43342 42.175 9.60299 42.175C10.4902 42.175 11.131 41.803 11.5209 41.3773L12.081 42.762Z"
          fill="#555555"/>
    <path d="M17.3016 43.6627H15.7242L15.6928 43.0936C15.4777 43.3221 15.0655 43.7837 14.2365 43.7837C13.3403 43.7837 12.3903 43.2684 12.3903 42.0674C12.3903 40.8665 13.4344 40.4587 14.3709 40.4139L15.6525 40.3601V40.2391C15.6525 39.67 15.2716 39.3743 14.6084 39.3743C13.9586 39.3743 13.3089 39.679 13.049 39.8538L12.6143 38.72C13.049 38.4915 13.8421 38.1733 14.7921 38.1733C15.7421 38.1733 16.2888 38.4019 16.6921 38.7962C17.082 39.1906 17.3016 39.7148 17.3016 40.6245V43.6627ZM15.657 41.2877L14.8414 41.3415C14.3351 41.3639 14.0348 41.5924 14.0348 41.9957C14.0348 42.4125 14.353 42.6634 14.8101 42.6634C15.2537 42.6634 15.5539 42.3587 15.657 42.1705V41.2877Z"
          fill="#555555"/>
    <path d="M21.6034 43.7792C20.8506 43.7792 20.3129 43.4835 19.9947 42.9816V45.6389H18.3456V38.2674H19.914L19.9051 38.9575H19.9275C20.2994 38.487 20.8461 38.1689 21.6213 38.1689C23.0867 38.1689 24.0142 39.3832 24.0142 40.9696C24.0142 42.5559 23.0777 43.7792 21.6034 43.7792ZM21.1284 39.549C20.4249 39.549 19.9409 40.1181 19.9409 40.9471C19.9409 41.7762 20.4249 42.3453 21.1284 42.3453C21.8409 42.3453 22.3249 41.7762 22.3249 40.9471C22.3249 40.1181 21.8409 39.549 21.1284 39.549Z"
          fill="#555555"/>
    <path d="M27.8321 39.6028H26.7074V41.5386C26.7074 42.0002 26.7701 42.1077 26.8508 42.2063C26.9225 42.296 27.0255 42.3363 27.2406 42.3363C27.4109 42.3318 27.5767 42.3004 27.738 42.2377L27.8187 43.6044C27.4378 43.7165 27.039 43.7747 26.6446 43.7792C26.0576 43.7792 25.6633 43.591 25.4079 43.2773C25.1524 42.9636 25.0449 42.511 25.0449 41.691V39.6028H24.3234V38.2809H25.0449V36.8156H26.7074V38.2809H27.8321V39.6028Z"
          fill="#555555"/>
    <path d="M32.7121 43.1339C32.6583 43.1787 32.1251 43.7792 30.7718 43.7792C29.3781 43.7792 28.0876 42.771 28.0876 40.9785C28.0876 39.1726 29.3961 38.1689 30.7897 38.1689C32.0892 38.1689 32.6762 38.738 32.6762 38.738L32.3133 40.0599C31.9458 39.7507 31.4843 39.5804 31.0048 39.5804C30.3013 39.5804 29.7456 40.0957 29.7456 40.9471C29.7456 41.7986 30.252 42.3363 31.0272 42.3363C31.8024 42.3363 32.3178 41.812 32.3178 41.812L32.7121 43.1339Z"
          fill="#555555"/>
    <path d="M38.3986 43.6627H36.7361V40.8306C36.7361 40.1764 36.6555 39.6073 35.9609 39.6073C35.2663 39.6073 35.0512 40.2212 35.0512 41.0188V43.6672H33.4067V36.112H35.0557V37.9045C35.0557 38.4512 35.0468 39.0427 35.0468 39.0427C35.3067 38.5632 35.7906 38.1689 36.5435 38.1689C38.0177 38.1689 38.3986 39.1637 38.3986 40.4766V43.6627Z"
          fill="#555555"/>
    <path d="M44 43.6627H42.4226L42.3913 43.0936C42.1762 43.3221 41.7639 43.7837 40.9349 43.7837C40.0387 43.7837 39.0887 43.2684 39.0887 42.0674C39.0887 40.8665 40.1328 40.4587 41.0693 40.4139L42.3509 40.3601V40.2391C42.3509 39.67 41.97 39.3743 41.3068 39.3743C40.6571 39.3743 40.0073 39.679 39.7474 39.8538L39.3127 38.7156C39.7474 38.487 40.5406 38.1689 41.4906 38.1689C42.4405 38.1689 42.9872 38.3974 43.3905 38.7917C43.7804 39.1861 44 39.7104 44 40.62V43.6627ZM42.3599 41.2877L41.5443 41.3415C41.038 41.3639 40.7377 41.5924 40.7377 41.9957C40.7377 42.4125 41.0559 42.6634 41.513 42.6634C41.9566 42.6634 42.2568 42.3587 42.3599 42.1705V41.2877V41.2877Z"
          fill="#555555"/>
</svg>
